<?xml version="1.0" encoding="utf-8"?>
<!-- Generator: Adobe Illustrator 22.0.0, SVG Export Plug-In . SVG Version: 6.00 Build 0)  -->
<svg version="1.1" id="Layer_1" xmlns="http://www.w3.org/2000/svg" xmlns:xlink="http://www.w3.org/1999/xlink" x="0px" y="0px"
	 viewBox="0 0 200 200" style="enable-background:new 0 0 200 200;" xml:space="preserve">
<style type="text/css">
	.st0{opacity:8.000000e-02;fill:none;stroke:#FFFFFF;stroke-width:0.25;stroke-miterlimit:10;enable-background:new    ;}
	.st1{opacity:0.8;}
	.st2{opacity:0.1;}
	.st3{fill:#FFFFFF;}
</style>
<g id="Layer_2_1_">
	<path class="st0" d="M180.1,199.7"/>
	<path class="st0" d="M60.1,0.1"/>
	<path class="st0" d="M100.2,0.1"/>
	<path class="st0" d="M140.2,0.1"/>
	<path class="st0" d="M180.2,0.1"/>
	<path class="st0" d="M140.1,199.7"/>
	<path class="st0" d="M20.1,0.1"/>
	<path class="st0" d="M100.1,199.7"/>
	<path class="st0" d="M60.2,199.5"/>
	<path class="st0" d="M20.2,199.5"/>
	<path class="st0" d="M40.3,199.7"/>
	<path class="st0" d="M160.3,0.1"/>
	<path class="st0" d="M0.2,199.7"/>
	<path class="st0" d="M120.2,0.1"/>
	<path class="st0" d="M80.2,0.1"/>
	<path class="st0" d="M40.2,0.1"/>
	<path class="st0" d="M80.1,199.7"/>
	<path class="st0" d="M120.2,199.5"/>
	<path class="st0" d="M160.2,199.5"/>
</g>
<g id="Layer_1_1_" class="st1">
	<g class="st2">
		<g>
			<ellipse class="st3" cx="10.4" cy="16.6" rx="1.4" ry="1.4"/>
		</g>
		<g>
			<ellipse class="st3" cx="50.2" cy="16.6" rx="1.4" ry="1.4"/>
		</g>
		<g>
			<ellipse class="st3" cx="90.2" cy="16.6" rx="1.4" ry="1.4"/>
		</g>
		<g>
			<ellipse class="st3" cx="129.9" cy="16.6" rx="1.4" ry="1.4"/>
		</g>
		<g>
			<ellipse class="st3" cx="170.2" cy="16.6" rx="1.4" ry="1.4"/>
		</g>
	</g>
	<g class="st2">
		<g>
			<ellipse class="st3" cx="30.1" cy="49.9" rx="1.4" ry="1.4"/>
		</g>
		<g>
			<ellipse class="st3" cx="70.2" cy="49.9" rx="1.4" ry="1.4"/>
		</g>
		<g>
			<ellipse class="st3" cx="109.9" cy="49.9" rx="1.4" ry="1.4"/>
		</g>
		<g>
			<ellipse class="st3" cx="149.9" cy="49.9" rx="1.4" ry="1.4"/>
		</g>
		<g>
			<ellipse class="st3" cx="190" cy="49.9" rx="1.4" ry="1.4"/>
		</g>
	</g>
	<g class="st2">
		<g>
			<ellipse class="st3" cx="10.4" cy="83.1" rx="1.4" ry="1.4"/>
		</g>
		<g>
			<ellipse class="st3" cx="50.2" cy="83.1" rx="1.4" ry="1.4"/>
		</g>
		<g>
			<ellipse class="st3" cx="90.2" cy="83.1" rx="1.4" ry="1.4"/>
		</g>
		<g>
			<ellipse class="st3" cx="129.9" cy="83.1" rx="1.4" ry="1.4"/>
		</g>
		<g>
			<ellipse class="st3" cx="170.2" cy="83.1" rx="1.4" ry="1.4"/>
		</g>
	</g>
	<g class="st2">
		<g>
			<ellipse class="st3" cx="30.1" cy="116.4" rx="1.4" ry="1.4"/>
		</g>
		<g>
			<ellipse class="st3" cx="70.2" cy="116.4" rx="1.4" ry="1.4"/>
		</g>
		<g>
			<ellipse class="st3" cx="109.9" cy="116.4" rx="1.4" ry="1.4"/>
		</g>
		<g>
			<ellipse class="st3" cx="149.9" cy="116.4" rx="1.4" ry="1.4"/>
		</g>
		<g>
			<ellipse class="st3" cx="190" cy="116.4" rx="1.4" ry="1.4"/>
		</g>
	</g>
	<g class="st2">
		<g>
			<ellipse class="st3" cx="10.4" cy="149.8" rx="1.4" ry="1.4"/>
		</g>
		<g>
			<ellipse class="st3" cx="50.2" cy="149.8" rx="1.4" ry="1.4"/>
		</g>
		<g>
			<ellipse class="st3" cx="90.2" cy="149.8" rx="1.4" ry="1.4"/>
		</g>
		<g>
			<ellipse class="st3" cx="129.9" cy="149.8" rx="1.4" ry="1.4"/>
		</g>
		<g>
			<ellipse class="st3" cx="170.2" cy="149.8" rx="1.4" ry="1.4"/>
		</g>
	</g>
	<g class="st2">
		<g>
			<ellipse class="st3" cx="30.1" cy="183" rx="1.4" ry="1.4"/>
		</g>
		<g>
			<ellipse class="st3" cx="70.2" cy="183" rx="1.4" ry="1.4"/>
		</g>
		<g>
			<ellipse class="st3" cx="109.9" cy="183" rx="1.4" ry="1.4"/>
		</g>
		<g>
			<ellipse class="st3" cx="149.9" cy="183" rx="1.4" ry="1.4"/>
		</g>
		<g>
			<ellipse class="st3" cx="190" cy="183" rx="1.4" ry="1.4"/>
		</g>
	</g>
</g>
<circle class="st0" cx="90.2" cy="16.6" r="3.5"/>
<circle class="st0" cx="90.2" cy="83.1" r="3.5"/>
<circle class="st0" cx="90.2" cy="149.8" r="3.5"/>
<circle class="st0" cx="129.9" cy="16.6" r="3.5"/>
<circle class="st0" cx="129.9" cy="83.1" r="3.5"/>
<circle class="st0" cx="129.9" cy="149.8" r="3.5"/>
<circle class="st0" cx="170.2" cy="16.6" r="3.5"/>
<circle class="st0" cx="170.2" cy="83.1" r="3.5"/>
<circle class="st0" cx="170.2" cy="149.8" r="3.5"/>
<circle class="st0" cx="50.2" cy="16.6" r="3.5"/>
<circle class="st0" cx="50.2" cy="83.1" r="3.5"/>
<circle class="st0" cx="50.2" cy="149.8" r="3.5"/>
<circle class="st0" cx="10.4" cy="16.6" r="3.5"/>
<circle class="st0" cx="10.4" cy="83.1" r="3.5"/>
<circle class="st0" cx="10.4" cy="149.8" r="3.5"/>
</svg>
